# xmcd
#
# Track frame offsets: 
#        150
#        8584
#        14794
#        20898
#        25331
#        31680
#        37029
#        42423
#        48157
#        52236
#        56952
#        65384
#        69003
#        72747
#        81188
#        82940
#        93470
#        98464
#        106648
#        112157
#        117401
#        124283
#        126085
#        128634
#        137658
#        142237
#        150356
#        158978
#        163029
#        168103
#        171827
#        181516
#        187090
#        191289
#        197596
#        200023
#        205637
#        211169
#        214268
#        223224
#        228363
#
# Disc length: 3132 seconds
#
# Revision: 0
# Processed by: cddbd v1.4PL0 Copyright (c) Steve Scherf et al.
# Submitted via: ExactAudioCopy v0.95a4
#
DISCID=4d0c3a29
DTITLE=Koledy - Vánoèní koledy
DYEAR=1900
DGENRE=Other
TTITLE0=Veselé vánoèní hody
TTITLE1=Pospìste sem pacholátka
TTITLE2=Veselte se, radujte se
TTITLE3=Sem, pastýøi
TTITLE4=Stìdrej veèer nastal
TTITLE5=Slyseli jsme v betlémì
TTITLE6=Pojïte chlapci k nám
TTITLE7=Pásli ovce valasi
TTITLE8=Slyste, slyste pastuskové
TTITLE9=Pùjdem spolu do Betléma
TTITLE10=Kyrie Eleison
TTITLE11=Jak jsi krásné neviòátko
TTITLE12=Hajej, nynej, Jezísku
TTITLE13=Nesem vám noviny
TTITLE14=Pastýøové vstávejte
TTITLE15=Já malý pøicházím
TTITLE16=Hlehle, tamhle v Betlémì
TTITLE17=Tichá noc
TTITLE18=Já bych rád k Betlému
TTITLE19=K Jezískovi do Betléma
TTITLE20=Stìstí, zdraví, pokoj svatý
TTITLE21=Já bych rád sel k Betlému
TTITLE22=Hore, hore, pastuskové
TTITLE23=Radostnì budem zpívat
TTITLE24=Chtíc, aby spal
TTITLE25=Ejhle, chasa nase
TTITLE26=U Betléma dnes Maria
TTITLE27=Co to znamenati má
TTITLE28=Dej Bùh stìstí
TTITLE29=Vzhùru, bratøi milí
TTITLE30=Aj, dnes v Betlémì
TTITLE31=Vondrási, Matósi
TTITLE32=S pastýøi pospíchejte
TTITLE33=Poslechnìte mnì málo
TTITLE34=Poslechnìte národové
TTITLE35=Pochválen buï
TTITLE36=Novina velmi dobrá
TTITLE37=Rychle bratøi
TTITLE38=Vánoèní ukolébavka
TTITLE39=Poslouchejte, køestané
TTITLE40=Narodil se Kristus Pán
EXTD=
EXTT0=
EXTT1=
EXTT2=
EXTT3=
EXTT4=
EXTT5=
EXTT6=
EXTT7=
EXTT8=
EXTT9=
EXTT10=
EXTT11=
EXTT12=
EXTT13=
EXTT14=
EXTT15=
EXTT16=
EXTT17=
EXTT18=
EXTT19=
EXTT20=
EXTT21=
EXTT22=
EXTT23=
EXTT24=
EXTT25=
EXTT26=
EXTT27=
EXTT28=
EXTT29=
EXTT30=
EXTT31=
EXTT32=
EXTT33=
EXTT34=
EXTT35=
EXTT36=
EXTT37=
EXTT38=
EXTT39=
EXTT40=
PLAYORDER=
